<?xml version="1.0" encoding="utf-8"?>
<svg aria-hidden="true" style="position: absolute; width: 0; height: 0; overflow: hidden;" version="1.1" xmlns="http://www.w3.org/2000/svg" xmlns:xlink="http://www.w3.org/1999/xlink">
 <defs>
  <symbol id="icon-close" viewBox="0 0 32 32">
   <path d="M32 16c0 8.837-7.163 16-16 16s-16-7.163-16-16c0-8.837 7.163-16 16-16s16 7.163 16 16z" style="fill: var(--color1, #e7e9fc)"/>
   <path d="M31.333 16c0 8.468-6.865 15.333-15.333 15.333s-15.333-6.865-15.333-15.333c0-8.468 6.865-15.333 15.333-15.333s15.333 6.865 15.333 15.333z" stroke="#000" stroke-linecap="butt" stroke-linejoin="miter" stroke-miterlimit="4" stroke-width="1.3333" style="stroke: var(--color2, #000)"/>
   <path d="M21.333 11.741l-1.074-1.074-4.259 4.259-4.259-4.259-1.074 1.074 4.259 4.259-4.259 4.259 1.074 1.074 4.259-4.259 4.259 4.259 1.074-1.074-4.259-4.259 4.259-4.259z" style="fill: var(--color3, #2e2f42)"/>
  </symbol>
 </defs>
</svg>
